<svg width="76" height="70" viewBox="-1 -57 76 70" fill="#808080" xmlns="http://www.w3.org/2000/svg"><path d="M73.8720 9.9360L73.8720 10.9440Q72.0720 11.6640 71.2080 11.6640L71.2080 11.6640Q63.7200 11.6640 56.0160 7.7040L56.0160 7.7040Q47.7360 3.5280 41.6160-4.1040L41.6160-4.1040Q33.1200 4.1040 25.6320 7.7760L25.6320 7.7760Q17.3520 11.8800 7.4880 11.8800L7.4880 11.8800Q5.1120 11.8800 3.0960 11.6280Q1.0800 11.3760 1.3680 11.3760L1.3680 11.3760Q-0.4320 11.3760-0.4320 10.8000L-0.4320 10.8000Q-0.4320 10.5120 0.1440 10.0800L0.1440 10.0800L2.3760 10.0800Q8.6400 10.0800 12.1680 9.3600L12.1680 9.3600Q16.8480 8.3520 20.8800 5.5440L20.8800 5.5440Q31.9680-2.1600 36.2880-9.8640L36.2880-9.8640Q36.0000-10.4400 33.3000-14.3640Q30.6000-18.2880 28.8720-22.0320L28.8720-22.0320Q22.3920-14.4720 14.1120-14.4720L14.1120-14.4720Q9.3600-14.4720 5.7600-17.8920Q2.1600-21.3120 2.1600-25.5600L2.1600-25.5600Q2.1600-30.3840 5.3640-33.6600Q8.5680-36.9360 13.3200-36.9360L13.3200-36.9360Q15.9840-36.9360 19.2600-34.9200Q22.5360-32.9040 25.2000-29.2320L25.2000-29.2320Q33.9840-43.9200 36.2880-55.1520L36.2880-55.1520L37.2240-55.8720Q37.6560-55.7280 38.0160-53.9280L38.0160-53.9280Q38.4480-51.4080 38.8800-48.8160L38.8800-48.8160Q40.3200-40.3920 45.9360-28.2960L45.9360-28.2960L46.3680-28.1520Q48.0960-32.0400 51.8400-34.3440L51.8400-34.3440Q55.3680-36.6480 59.3280-36.6480L59.3280-36.6480Q64.5120-36.6480 67.8960-33.0840Q71.2800-29.5200 71.2800-24.1200L71.2800-24.1200Q71.2800-20.3040 68.1840-17.0640Q65.0880-13.8240 61.2720-13.8240L61.2720-13.8240Q55.9440-13.8240 51.2640-20.0160L51.2640-20.0160Q48.8160-14.2560 42.9120-5.7600L42.9120-5.7600Q48.0240 1.8000 56.0160 5.8680Q64.0080 9.9360 73.8720 9.9360L73.8720 9.9360ZM69.3360-23.8320L69.3360-23.8320Q69.3360-28.3680 66.8880-30.9600Q64.4400-33.5520 60.6960-33.5520L60.6960-33.5520L60.1200-33.5520Q58.6800-33.5520 56.9520-31.5000Q55.2240-29.4480 54.0720-26.0640L54.0720-26.0640Q52.2720-20.8080 52.2720-21.3840L52.2720-21.3840Q52.2720-20.8800 55.8720-17.4960L55.8720-17.4960Q59.4000-15.5520 60.9840-15.5520L60.9840-15.5520Q64.3680-15.5520 66.8520-18.0000Q69.3360-20.4480 69.3360-23.8320ZM45.2880-26.5680L45.2880-26.5680Q43.3440-29.5200 41.5440-34.1280L41.5440-34.1280Q39.0960-40.6080 38.7360-41.3280L38.7360-41.3280Q35.9280-34.0560 32.6880-28.0800L32.6880-28.0800Q30.0960-23.3280 30.0960-23.4000L30.0960-23.4000Q34.2000-15.6960 37.6560-11.6640L37.6560-11.6640Q38.9520-13.7520 45.2880-26.5680ZM24.0480-27.0720L24.0480-27.0720Q24.0480-28.8000 20.3760-31.8240L20.3760-31.8240Q16.4880-35.0640 13.2480-35.0640L13.2480-35.0640Q9.2160-35.0640 6.7680-32.6880Q4.3200-30.3120 4.3200-26.2800L4.3200-26.2800Q4.3200-22.1040 6.5160-19.6920Q8.7120-17.2800 12.2400-17.2800L12.2400-17.2800Q15.9120-17.2800 20.9520-22.4640L20.9520-22.4640Q24.0480-25.6320 24.0480-27.0720Z"/></svg>