<svg width="48" height="54" viewBox="2 -52 48 54" fill="#808080" xmlns="http://www.w3.org/2000/svg"><path d="M49.1760-7.5600L49.1760-7.5600Q49.1760-6.8040 45.7380-4.0680Q42.3000-1.3320 38.1780 0.1260Q34.0560 1.5840 29.5200 1.5840L29.5200 1.5840Q22.4640 1.5840 16.4160-1.9260Q10.3680-5.4360 6.8760-11.4840Q3.3840-17.5320 3.3840-24.5520L3.3840-24.5520Q3.3840-31.6080 6.8760-37.6560Q10.3680-43.7040 16.4160-47.2140Q22.4640-50.7240 29.5200-50.7240L29.5200-50.7240Q34.8480-50.7240 39.7260-48.6540Q44.6040-46.5840 44.6040-45.4680L44.6040-45.4680Q44.4960-44.9640 44.1000-44.5320Q43.7040-44.1000 43.2360-44.1000L43.2360-44.1000L43.0920-44.1720Q41.1120-45.6840 37.2600-45.6840L37.2600-45.6840Q34.2000-45.6840 31.9680-43.6680Q29.7360-41.6520 29.7360-38.0520L29.7360-38.0520Q29.7360-34.6680 27.0000-33.7320L27.0000-33.7320Q27.1080-31.6440 29.7000-28.1880L29.7000-28.1880Q32.0400-25.0560 32.0400-23.4000L32.0400-23.4000Q32.0400-21.8160 30.7800-21.0060Q29.5200-20.1960 26.2080-19.5120L26.2080-19.5120L26.2080-19.0080Q26.2080-12.4920 29.3400-8.7660Q32.4720-5.0400 37.5480-5.0400L37.5480-5.0400Q43.7400-5.0400 47.4840-8.8560L47.4840-8.8560L47.8080-8.9640Q48.2400-8.9640 48.7080-8.4780Q49.1760-7.9920 49.1760-7.5600ZM36.5400-47.3400L36.5400-47.3400Q33.5520-48.2760 30.8880-48.2760L30.8880-48.2760Q26.6400-48.2760 23.4000-45.4500Q20.1600-42.6240 20.1600-39.0600L20.1600-39.0600Q20.1600-35.8200 25.4160-35.8200L25.4160-35.8200Q27.4320-35.8200 27.4320-38.0520L27.4320-38.0520Q27.4320-42.3000 29.8260-44.6940Q32.2200-47.0880 36.5400-47.3400ZM29.7360-23.4000L29.7360-23.4000Q29.7360-24.2280 27.9360-26.6040L27.9360-26.6040Q24.8400-30.7080 24.6960-33.4440L24.6960-33.4440Q22.8600-33.7320 21.0960-33.7320L21.0960-33.7320Q15.5520-33.7320 15.5520-30.6720L15.5520-30.6720Q15.5520-29.1600 16.7760-29.1600L16.7760-29.1600Q18.5760-29.1600 18.8640-30.5280L18.8640-30.5280Q18.9720-31.0320 19.8720-31.0320L19.8720-31.0320Q21.1680-31.0320 21.1680-30.3120L21.1680-30.3120Q21.1680-28.9440 19.8720-27.9720Q18.5760-27.0000 16.4880-27.0000L16.4880-27.0000Q15.4800-27.0000 14.5260-27.4680Q13.5720-27.9360 13.2480-28.5120L13.2480-28.5120Q11.5920-28.5120 10.4040-26.9820Q9.2160-25.4520 9.2160-23.3280L9.2160-23.3280Q9.2160-20.7360 10.4580-19.3320Q11.7000-17.9280 13.9680-17.9280L13.9680-17.9280Q15.0840-17.9280 16.1460-18.7920Q17.2080-19.6560 18.9360-22.2840L18.9360-22.2840Q20.8800-25.2720 21.8880-25.2720L21.8880-25.2720Q21.8880-23.7240 23.6880-21.3120L23.6880-21.3120Q26.1720-21.5280 27.9540-22.1040Q29.7360-22.6800 29.7360-23.4000ZM19.5840-14.4000L24.2640-14.8320Q23.9040-17.1000 23.9040-19.0080L23.9040-19.0080Q23.2560-18.9360 22.0320-18.9360L22.0320-18.9360Q19.5120-18.9360 19.5120-14.9760L19.5120-14.9760Q19.5120-14.5440 19.5840-14.4000L19.5840-14.4000ZM37.0440-2.8800L37.0440-2.8800Q32.6160-2.8800 29.4300-5.4180Q26.2440-7.9560 24.8400-12.5280L24.8400-12.5280L20.0160-12.0960Q21.5640-7.6680 25.9560-5.2740Q30.3480-2.8800 37.0440-2.8800Z"/></svg>