<svg width="68" height="66" viewBox="5 -54 68 66" fill="#808080" xmlns="http://www.w3.org/2000/svg"><path d="M71.9280-21.0240L71.9280-21.0240Q71.9280-14.5440 68.7600-7.9200Q65.5920-1.2960 60.4080 2.9520L60.4080 2.9520Q55.0080 7.4160 50.2560 9.2160Q45.5040 11.0160 39.2400 11.0160L39.2400 11.0160Q24.3360 11.0160 17.4240 4.4640L17.4240 4.4640Q6.0480-6.3360 6.0480-20.3760L6.0480-20.3760Q6.0480-29.5920 9.2880-35.0640L9.2880-35.0640Q14.7600-44.2080 21.7440-48.4560Q28.7280-52.7040 38.8800-52.7040L38.8800-52.7040L41.1120-52.7040Q46.5120-52.7040 52.5600-50.1840L52.5600-50.1840Q59.2560-47.4480 63.7200-42.6960L63.7200-42.6960Q67.8960-38.2320 69.7680-33.6960L69.7680-33.6960Q71.9280-28.3680 71.9280-21.0240ZM69.6960-23.1120L69.6960-23.1120Q69.6960-23.8320 68.5440-29.0160L68.5440-29.0160Q67.9680-31.6080 66.7440-35.4960L66.7440-35.4960Q63.8640-41.4720 55.2960-47.0880L55.2960-47.0880Q46.5840-50.9760 40.1040-50.9760L40.1040-50.9760Q33.7680-50.9760 28.0800-49.0680Q22.3920-47.1600 18.6480-43.8480L18.6480-43.8480Q12.2400-38.2320 9.8640-32.5440L9.8640-32.5440Q7.7040-27.4320 7.7040-19.2240L7.7040-19.2240Q7.7040-15.0480 9.6480-10.0080L9.6480-10.0080Q11.7360-4.3920 15.4800 0L15.4800 0Q23.5440 9.5040 38.4480 9.5040L38.4480 9.5040Q51.6960 9.5040 61.9920-1.1520L61.9920-1.1520Q69.6960-9.1440 69.6960-23.1120ZM67.1040-22.0320L67.1040-22.0320Q67.1040-17.5680 65.9520-16.2720L65.9520-16.2720Q66.1680-15.8400 66.1680-15.4080L66.1680-15.4080Q66.1680-13.6800 62.6400-7.2000L62.6400-7.2000Q60.6240-3.4560 59.4000-1.9440L59.4000-1.9440Q57.1680 0.8640 53.5680 2.8800L53.5680 2.8800Q45.9360 7.2000 37.4400 7.2000L37.4400 7.2000Q34.9200 7.2000 30.8880 6.1560Q26.8560 5.1120 24.2640 3.7440L24.2640 3.7440Q17.5680 0.2160 13.8960-6.1920Q10.2240-12.6000 10.2240-20.6640L10.2240-20.6640Q10.2240-23.6880 10.9440-27.2160L10.9440-27.2160Q11.5200-29.8800 11.9520-30.8160L11.9520-30.8160Q15.9120-39.3840 23.2560-44.2800L23.2560-44.2800Q30.3120-49.0320 38.5200-49.0320L38.5200-49.0320Q49.0320-49.0320 54.6480-44.3520L54.6480-44.3520Q61.6320-38.5920 64.2240-33.9840L64.2240-33.9840Q67.1040-29.0880 67.1040-22.0320ZM54.4320-38.7360L54.4320-38.7360Q52.0560-45.0720 38.8800-45.0720L38.8800-45.0720Q35.2800-45.0720 30.3840-43.7040L30.3840-43.7040Q24.0480-41.9760 23.6880-39.5280L23.6880-39.5280Q26.8560-37.5840 27.6480-36.9360L27.6480-36.9360Q29.3040-35.6400 29.9520-33.8400L29.9520-33.8400Q30.3120-32.8320 30.7080-31.7880Q31.1040-30.7440 31.9680-30.0240L31.9680-30.0240Q32.2560-29.8080 33.7680-27.3600L33.7680-27.3600Q34.7040-25.8480 36.4320-25.8480L36.4320-25.8480Q36.8640-25.8480 37.1520-25.9200L37.1520-25.9200Q38.0880-26.7840 38.0880-32.0400L38.0880-32.0400Q38.0880-33.5520 36.4680-35.2800Q34.8480-37.0080 34.8480-38.6640L34.8480-38.6640Q34.8480-40.3200 36.0000-41.5440Q37.1520-42.7680 38.7360-42.7680L38.7360-42.7680Q40.3920-42.7680 41.6520-41.5440Q42.9120-40.3200 42.9120-38.8080L42.9120-38.8080Q42.9120-38.5200 41.5080-35.9280Q40.1040-33.3360 40.1040-31.1040L40.1040-31.1040Q40.1040-28.4400 41.2560-25.4880L41.2560-25.4880Q42.3360-26.3520 43.5240-27.3240Q44.7120-28.2960 45.5040-29.5200L45.5040-29.5200Q49.2480-35.1360 49.3920-35.2800L49.3920-35.2800Q51.6240-38.0160 54.4320-38.7360ZM63.1440-22.3200L63.1440-22.3200Q63.1440-26.1360 61.0560-31.9680L61.0560-31.9680Q59.0400-36.0000 57.1680-36.0720L57.1680-36.0720Q56.4480-35.4240 55.2600-33.4080Q54.0720-31.3920 52.9200-30.5280L52.9200-30.5280Q50.5440-28.9440 48.1680-27.4320L48.1680-27.4320Q45.3600-25.4880 43.9920-23.2560L43.9920-23.2560Q46.6560-21.8880 48.0960-21.8880L48.0960-21.8880L50.9760-21.8880Q51.9840-21.8880 54.0720-23.9760Q56.1600-26.0640 57.6720-26.0640L57.6720-26.0640Q59.3280-26.0640 60.5880-24.8760Q61.8480-23.6880 61.8480-21.9600L61.8480-21.9600Q61.8480-17.2080 57.8880-17.2080L57.8880-17.2080Q57.3840-17.2080 54.2160-18.8280Q51.0480-20.4480 48.0960-20.4480L48.0960-20.4480Q45.8640-20.4480 43.3440-19.2240L43.3440-19.2240Q44.4960-16.7040 46.8720-15.0480L46.8720-15.0480Q48.9600-13.8240 51.0480-12.6000L51.0480-12.6000Q54.6480-10.5120 56.7360-5.6880L56.7360-5.6880Q59.6160-6.4080 61.3440-10.6560L61.3440-10.6560Q63.1440-15.1920 63.1440-22.3200ZM34.2720-22.6080L34.2720-22.6080Q33.4080-24.9840 30.3120-26.8560L30.3120-26.8560Q25.0560-30.0960 24.9840-30.1680L24.9840-30.1680Q23.8320-31.1040 22.4640-33.6240L22.4640-33.6240Q21.0240-36.4320 20.0160-37.5120L20.0160-37.5120Q18.3600-36.5760 17.3520-34.4880L17.3520-34.4880Q17.2080-34.3440 15.4800-30.0240L15.4800-30.0240Q15.1200-29.3760 14.6160-27.0720L14.6160-27.0720Q14.4720-25.3440 14.0400-23.1120L14.0400-23.1120Q13.6800-21.2400 13.6800-20.8800L13.6800-20.8800Q13.6800-16.8480 15.2640-12.8160L15.2640-12.8160Q18.4320-4.7520 20.6640-4.7520L20.6640-4.7520Q21.5280-6.7680 22.0320-7.7760L22.0320-7.7760Q26.4240-11.0880 30.8160-14.4000L30.8160-14.4000Q34.0560-16.9920 34.0560-19.0080L34.0560-19.0080L34.0560-19.2960Q32.6160-20.2320 29.2320-20.2320L29.2320-20.2320Q30.0240-20.2320 24.9840-19.8720L24.9840-19.8720Q22.3200-15.9840 20.4480-15.9840L20.4480-15.9840Q18.7920-15.9840 17.2080-17.2440Q15.6240-18.5040 15.6240-20.0160L15.6240-20.0160Q15.6240-22.5360 16.8120-24.2280Q18.0000-25.9200 19.8000-25.9200L19.8000-25.9200Q21.6720-25.9200 23.0400-24.2640L23.0400-24.2640Q24.9840-21.8880 28.2240-21.8880L28.2240-21.8880Q32.3280-21.8880 34.2720-22.6080ZM54.2880-2.9520L54.2880-2.9520Q53.1360-3.5280 50.4720-5.4720L50.4720-5.4720Q46.7280-11.8080 41.7600-16.4160L41.7600-16.4160L40.8240-16.4160Q40.6080-15.9120 40.2480-15.1920L40.2480-15.1920Q40.2480-14.9040 40.3200-14.4720L40.3200-14.4720Q40.3200-14.0400 40.3200-13.8240L40.3200-13.8240Q40.3200-12.4560 40.1040-11.0880Q39.8880-9.7200 39.8880-9.7200L39.8880-9.7200Q39.8880-8.2800 41.8320-6.3360Q43.7760-4.3920 43.7760-3.7440L43.7760-3.7440Q43.7760-2.4480 42.4800-0.8640Q41.1840 0.7200 39.8880 0.7200L39.8880 0.7200Q38.1600 0.7200 36.7200-0.2880Q35.2800-1.2960 35.2800-2.5920L35.2800-2.5920Q35.2800-3.8880 36.2880-5.2560L36.2880-5.2560Q37.5120-6.9840 37.5120-6.9840L37.5120-6.9840Q38.0880-7.5600 38.0880-12.8160L38.0880-12.8160Q38.0880-15.9840 36.2160-15.9840L36.2160-15.9840Q35.2080-15.9840 34.2000-14.1120L34.2000-14.1120Q32.4000-10.8000 31.4640-9.5760L31.4640-9.5760Q29.0160-6.3360 27.5760-5.0400L27.5760-5.0400Q25.2000-2.8080 22.1760-2.0160L22.1760-2.0160Q22.4640-0.1440 24.0480 0.8640L24.0480 0.8640Q25.3440 1.6560 28.4400 2.3040L28.4400 2.3040Q28.5120 2.3040 32.9040 3.4560L32.9040 3.4560Q35.2800 4.0320 36.6480 4.0320L36.6480 4.0320L39.1680 4.0320Q43.9920 4.0320 48.8160 1.7280L48.8160 1.7280Q53.2800-0.5040 54.2880-2.9520Z"/></svg>