<svg width="64" height="62" viewBox="0 -58 64 62" fill="#808080" xmlns="http://www.w3.org/2000/svg"><path d="M57.8520-16.0920L57.8520-16.0920Q56.7720-16.0920 55.6920-16.3440L55.6920-16.3440Q51.4800-17.2800 49.8600-17.2800L49.8600-17.2800L49.5000-17.2800Q52.4520-11.4840 53.5680-10.7640L53.5680-10.7640Q53.7120-10.6560 53.7120-10.3680L53.7120-10.3680Q53.7120-9.9000 53.3160-9.3960Q52.9200-8.8920 52.4880-8.8920L52.4880-8.8920L52.2720-8.9640Q51.1920-9.6840 46.9080-10.3680L46.9080-10.3680Q47.0880-9.5760 47.0880-8.7120L47.0880-8.7120Q47.0880-7.2360 46.2600-4.4640L46.2600-4.4640Q45.4320-1.7640 45.4320-0.3240L45.4320-0.3240Q45.4320 1.2600 46.1160 2.7360L46.1160 2.7360Q46.2240 2.9160 46.2240 3.0960L46.2240 3.0960Q46.2240 3.5280 45.5400 3.5280L45.5400 3.5280Q44.2080 3.5280 42.5700 2.2680Q40.9320 1.0080 39.7800-1.3680L39.7800-1.3680Q37.7640-5.4360 36.8280-6.4800L36.8280-6.4800Q34.2360-0.8280 34.2360 0.7920L34.2360 0.7920Q34.2360 1.4760 33.0840 1.4760L33.0840 1.4760Q32.1120 1.4760 32.0760 0.8640L32.0760 0.8640Q32.0040-0.2880 29.8800-4.1760L29.8800-4.1760Q28.4760-2.4480 24.8400-1.0080L24.8400-1.0080Q22.1040 0.0720 20.9520 1.0260Q19.8000 1.9800 19.1160 3.4200L19.1160 3.4200Q18.9720 3.7440 18.6480 3.7440L18.6480 3.7440Q18.1800 3.7440 17.7300 2.6640Q17.2800 1.5840 17.2800 0.1440L17.2800 0.1440Q17.2800-1.8360 18.1800-3.7440L18.1800-3.7440Q20.2680-8.1360 20.5200-9.5760L20.5200-9.5760Q14.2560-8.0280 13.2120-7.1280L13.2120-7.1280L12.9240-7.0200Q12.4920-7.0200 12.0600-7.4880Q11.6280-7.9560 11.6280-8.4240L11.6280-8.4240Q11.6280-8.6760 11.7720-8.7840L11.7720-8.7840Q12.6000-9.4680 14.4000-13.6800L14.4000-13.6800Q12.1320-13.6800 8.7120-15.6240L8.7120-15.6240Q5.4000-17.5320 3.3120-17.5320L3.3120-17.5320Q2.5560-17.5320 1.7280-17.3520L1.7280-17.3520L1.5480-17.3160Q1.0800-17.3160 1.0800-17.7840L1.0800-17.7840Q1.0800-19.0080 2.7360-20.4840Q4.3920-21.9600 6.8760-22.5360L6.8760-22.5360Q11.2680-23.5440 12.7440-24.3360L12.7440-24.3360Q7.9200-28.1160 6.3360-28.5120L6.3360-28.5120Q5.8320-28.5120 5.8320-29.3760L5.8320-29.3760Q5.8320-29.8440 6.0660-30.2580Q6.3000-30.6720 6.6960-30.6720L6.6960-30.6720Q6.9120-30.6000 7.2000-30.6000L7.2000-30.6000Q8.6400-30.6000 12.0960-31.6800L12.0960-31.6800Q10.7280-33.4080 10.1160-37.2960L10.1160-37.2960Q9.6840-40.2120 9.0180-41.5440Q8.3520-42.8760 7.1280-43.8480L7.1280-43.8480Q6.8760-44.0640 6.8760-44.3160L6.8760-44.3160Q6.8760-45.1080 9.0360-45.1080L9.0360-45.1080Q11.9160-45.1080 15.2640-42.3720L15.2640-42.3720Q17.8560-40.2120 19.4400-39.5640L19.4400-39.5640Q19.3320-46.0080 18.6840-47.1960L18.6840-47.1960L18.6120-47.3760Q18.6120-47.7720 19.0980-48.1320Q19.5840-48.4920 20.0880-48.4920L20.0880-48.4920Q20.4840-48.4920 20.6280-48.2760L20.6280-48.2760Q21.2400-47.1600 24.7680-44.6760L24.7680-44.6760Q25.2720-46.8000 27.9000-49.6800L27.9000-49.6800Q29.9160-51.8760 30.5460-53.2440Q31.1760-54.6120 31.1760-56.1960L31.1760-56.1960Q31.1760-56.7000 31.6080-56.7000L31.6080-56.7000Q32.6880-56.7000 33.8940-54.7020Q35.1000-52.7040 35.1000-50.0760L35.1000-50.0760Q35.1000-45.3960 35.5320-43.8120L35.5320-43.8120Q40.5000-48.0240 41.0040-49.2120L41.0040-49.2120Q41.1480-49.5000 41.5800-49.5000L41.5800-49.5000Q42.1920-49.5000 42.6420-49.1940Q43.0920-48.8880 43.0560-48.3480L43.0560-48.3480Q42.7680-47.7000 42.7680-45.9360L42.7680-45.9360Q42.7680-44.7480 42.8760-42.8760L42.8760-42.8760Q44.4600-43.6320 46.5840-43.6320L46.5840-43.6320Q47.3040-43.6320 48.7440-43.5240L48.7440-43.5240Q50.1480-43.4160 50.8680-43.4160L50.8680-43.4160Q53.8200-43.4160 55.8720-45.0360L55.8720-45.0360Q56.0520-45.1800 56.2320-45.1800L56.2320-45.1800Q56.7720-45.1800 56.7720-43.9920L56.7720-43.9920Q56.7720-40.7880 53.0640-37.8000L53.0640-37.8000Q49.7880-35.2080 48.9240-33.9480L48.9240-33.9480Q53.8560-32.9040 55.5840-32.9040L55.5840-32.9040Q56.1960-32.9040 56.6280-33.0120L56.6280-33.0120Q56.9520-33.0120 57.2400-32.5620Q57.5280-32.1120 57.5280-31.6080L57.5280-31.6080Q57.5280-30.9600 57.1320-30.8520L57.1320-30.8520Q56.0160-30.5640 52.6680-27.6480L52.6680-27.6480Q54.6840-26.6400 56.9160-23.3640L56.9160-23.3640Q58.5720-20.9520 59.7600-20.0340Q60.9480-19.1160 62.4600-18.7920L62.4600-18.7920Q62.9280-18.6840 62.9280-18.3600L62.9280-18.3600Q62.9280-17.6760 61.3620-16.8840Q59.7960-16.0920 57.8520-16.0920ZM51.0840-39.2040L52.0200-39.9240L52.0920-40.1400Q52.0920-40.8240 51.4800-40.8240L51.4800-40.8240L51.2640-40.7880Q50.1480-40.0680 48.2040-39.6000L48.2040-39.6000Q43.4520-38.4480 43.4520-35.5320L43.4520-35.5320L43.4520-35.1720Q45.1080-33.0120 45.3960-32.2560L45.3960-32.2560Q46.3320-35.4240 51.0840-39.2040L51.0840-39.2040ZM40.4280-37.7640L40.5720-45.4680L37.9080-39.0600Q39.3120-38.5560 40.4280-37.7640L40.4280-37.7640ZM47.2680-26.3520L53.3880-31.0320L46.6920-29.0880Q46.9440-28.2240 47.2680-26.3520L47.2680-26.3520ZM34.6680-39.9960L34.6680-39.9960Q33.6240-41.5800 33.2100-43.5240Q32.7960-45.4680 32.7960-48.8520L32.7960-48.8520L32.7960-50.0040Q32.7960-50.2920 32.2560-50.2920L32.2560-50.2920Q31.6800-50.2920 31.6800-49.9320L31.6800-49.9320Q31.5360-48.6360 30.6720-46.7640L30.6720-46.7640Q29.7360-44.7480 29.7360-43.2360L29.7360-43.2360Q29.7360-41.2200 31.1760-40.3560L31.1760-40.3560Q33.4800-40.3560 34.6680-39.9960ZM56.5920-19.2960L56.5920-19.2960Q56.5920-19.6200 56.3400-19.7280L56.3400-19.7280Q55.1160-20.1600 53.4960-21.4200L53.4960-21.4200Q51.1200-23.2560 49.3560-23.2560L49.3560-23.2560Q47.9520-23.2560 47.0520-22.3200L47.0520-22.3200Q46.5840-20.1240 45.9720-19.0080L45.9720-19.0080Q47.6280-19.6920 49.5000-19.6920L49.5000-19.6920Q51.5520-19.6920 54.9720-18.9000L54.9720-18.9000L56.1960-18.6120Q56.5920-18.6120 56.5920-19.2960ZM27.2880-39.6360L27.2880-39.6360L21.3120-44.5320L24.6960-38.4840Q25.5600-39.0240 27.2880-39.6360ZM42.5160-13.8240L50.0040-12.0240L44.3160-15.9840Q43.9560-15.4440 42.5160-13.8240L42.5160-13.8240ZM45.3240-24.9840L45.3240-24.9840Q45.3240-30.5280 41.4180-34.4700Q37.5120-38.4120 31.9680-38.4120L31.9680-38.4120Q29.0880-38.4120 26.2800-37.1700Q23.4720-35.9280 23.4720-33.9480L23.4720-33.9480Q23.4720-31.9680 25.5600-31.9680L25.5600-31.9680Q27.5760-31.9680 29.2680-30.9420Q30.9600-29.9160 30.9600-29.0160L30.9600-29.0160Q30.9600-26.7480 30.1680-23.9040L30.1680-23.9040Q31.1760-23.6160 31.9680-23.6160L31.9680-23.6160Q33.0480-23.6160 34.2360-24.0480L34.2360-24.0480Q34.4520-24.0480 34.7400-23.5260Q35.0280-23.0040 35.0280-22.6080L35.0280-22.6080Q35.0280-22.2480 33.9840-21.9600Q32.9400-21.6720 31.9680-21.6720L31.9680-21.6720L31.9680-19.5120Q32.4720-20.0160 33.2280-20.0160L33.2280-20.0160Q33.6960-20.0160 34.6680-19.5480L34.6680-19.5480Q35.6400-19.0800 36.1080-19.0800L36.1080-19.0800Q36.6840-19.0800 37.2240-19.4400L37.2240-19.4400L37.5480-19.5840Q38.4840-19.5840 38.4840-18.5760L38.4840-18.5760Q38.4840-18.2160 37.4760-17.6760Q36.4680-17.1360 35.5320-17.1360L35.5320-17.1360Q35.1360-17.1360 34.3080-17.4960L34.3080-17.4960Q33.6600-17.7840 33.3720-17.7840L33.3720-17.7840Q33.1560-17.7840 32.7960-17.6760L32.7960-17.6760Q32.3280-17.5680 31.9680-17.5680L31.9680-17.5680Q31.5000-17.5680 31.0680-17.6760L31.0680-17.6760Q30.7440-17.7840 30.5280-17.7840L30.5280-17.7840Q30.2400-17.7840 29.6280-17.4960L29.6280-17.4960Q28.7640-17.1360 28.2960-17.1360L28.2960-17.1360Q28.5120-17.1360 29.3040-16.7400L29.3040-16.7400Q31.0320-15.8400 31.9680-15.8400L31.9680-15.8400Q32.8320-15.8400 33.4440-16.1640L33.4440-16.1640Q33.7320-16.3440 33.9480-16.3440L33.9480-16.3440Q34.5960-16.3440 34.5960-15.6240L34.5960-15.6240Q34.5960-15.1920 33.7140-14.6160Q32.8320-14.0400 31.9680-14.0400L31.9680-14.0400Q31.4640-14.0400 31.1400-13.6440Q30.8160-13.2480 30.8160-12.7440L30.8160-12.7440Q30.8160-11.5920 31.9680-11.5920L31.9680-11.5920Q37.4760-11.5920 41.4000-15.5160Q45.3240-19.4400 45.3240-24.9840ZM28.7280-28.8720L28.7280-28.8720Q28.7280-29.1240 27.9360-29.4300Q27.1440-29.7360 26.1360-29.8080L26.1360-29.8080Q26.9280-29.4120 26.9280-28.5840L26.9280-28.5840Q26.9280-27.6840 26.1360-27.2880L26.1360-27.2880Q27.0720-27.3960 27.9000-27.9720Q28.7280-28.5480 28.7280-28.8720ZM21.9600-36.5400L21.9600-36.5400Q20.0880-36.6120 18.2880-37.4940Q16.4880-38.3760 13.8240-40.5000L13.8240-40.5000L12.9600-41.2200L12.7440-41.2920Q12.1680-41.2920 12.1680-40.6080L12.1680-40.6080L12.2760-40.3200Q13.1760-39.4200 14.1120-37.5840L14.1120-37.5840Q15.9840-33.8040 18.4680-33.8040L18.4680-33.8040Q18.9720-33.8040 19.4400-33.9480L19.4400-33.9480Q20.8080-35.6760 21.9600-36.5400ZM25.1280-27.2880L25.1280-27.2880Q24.3360-27.6120 24.3360-28.5840L24.3360-28.5840Q24.3360-29.4480 25.1280-29.8080L25.1280-29.8080Q24.0840-29.7360 23.3100-29.4300Q22.5360-29.1240 22.5360-28.8720L22.5360-28.8720Q22.5360-28.5480 23.3460-27.9720Q24.1560-27.3960 25.1280-27.2880ZM43.0560-2.6640L43.0560-2.6640Q42.5880-3.8880 42.5520-5.9400L42.5520-5.9400Q42.5160-11.1600 39.2760-11.5200L39.2760-11.5200Q37.3320-10.5480 35.9640-10.2960L35.9640-10.2960Q37.6200-9.3240 38.8440-7.7400Q40.0680-6.1560 41.5080-3.1680L41.5080-3.1680L42.0120-2.0880Q42.0840-1.9440 42.2640-1.9440L42.2640-1.9440Q43.0560-1.9440 43.0560-2.6640ZM27.0000-20.5200L27.0000-20.5200Q25.2000-21.3120 25.2000-23.2560L25.2000-23.2560Q25.2000-23.8320 25.2720-24.1200L25.2720-24.1200Q23.2920-24.1200 22.2480-25.0560L22.2480-25.0560Q20.3040-23.8320 20.3040-21.6000L20.3040-21.6000Q20.3040-20.4480 21.2040-19.6920Q22.1040-18.9360 23.5440-18.9360L23.5440-18.9360Q25.8480-18.9360 27.0000-20.5200ZM17.5680-30.4560L17.5680-30.4560L10.0080-28.8720L16.8480-27.7200Q17.0640-29.0880 17.5680-30.4560ZM29.8080-9.7920L33.0120-2.7360L32.6520-9.7200Q32.1120-9.6840 31.5000-9.6840L31.5000-9.6840Q30.4920-9.6840 29.8080-9.7920L29.8080-9.7920ZM17.1360-20.8080L17.1360-20.8080Q16.6680-23.0400 16.6680-23.9760L16.6680-23.9760Q16.6680-24.1560 16.7040-24.3360L16.7040-24.3360Q15.4080-22.9320 13.5900-22.0860Q11.7720-21.2400 8.4960-20.5200L8.4960-20.5200L7.4160-20.3040Q7.1640-20.2320 7.1640-19.8720L7.1640-19.8720Q7.1640-19.1880 7.7040-19.1880L7.7040-19.1880L8.6400-19.1880Q9.5400-19.1880 11.0160-18.9000L11.0160-18.9000Q12.4560-18.6120 13.2120-18.6120L13.2120-18.6120Q16.4520-18.6120 17.1360-20.8080ZM15.2640-10.2960L20.3760-14.9040Q19.1520-16.4160 18.7200-17.2080L18.7200-17.2080L15.2640-10.2960ZM26.4600-9.2880L26.4600-9.2880Q26.4600-10.1520 25.9920-10.8720L25.9920-10.8720Q24.0120-11.7360 22.9680-12.6720L22.9680-12.6720Q23.0760-11.9520 23.0760-11.2680L23.0760-11.2680Q23.0760-8.6040 20.8800-3.8880L20.8800-3.8880L20.3400-2.7360Q20.8080-2.2320 20.9880-2.2320L20.9880-2.2320Q21.2400-2.2320 21.3480-2.4120L21.3480-2.4120Q22.0320-3.4560 23.5800-4.7160L23.5800-4.7160Q26.4600-7.0920 26.4600-9.2880ZM43.6680-29.0160L43.6680-29.0160Q43.6680-28.0080 41.9940-26.7120Q40.3200-25.4160 38.3400-25.4160L38.3400-25.4160Q36.3600-25.4160 34.6500-26.7120Q32.9400-28.0080 32.9400-29.0160L32.9400-29.0160Q32.9400-29.9160 34.6320-30.9420Q36.3240-31.9680 38.3400-31.9680L38.3400-31.9680Q40.3560-31.9680 42.0120-30.9420Q43.6680-29.9160 43.6680-29.0160ZM41.3640-28.8720L41.3640-28.8720Q41.3640-29.1240 40.5900-29.4300Q39.8160-29.7360 38.7720-29.8080L38.7720-29.8080Q39.5640-29.4120 39.5640-28.5840L39.5640-28.5840Q39.5640-27.6840 38.7720-27.2880L38.7720-27.2880Q39.7440-27.3960 40.5540-27.9720Q41.3640-28.5480 41.3640-28.8720ZM37.7640-27.2880L37.7640-27.2880Q36.9720-27.6120 36.9720-28.5840L36.9720-28.5840Q36.9720-29.4120 37.7640-29.8080L37.7640-29.8080Q36.7560-29.7360 35.9640-29.4300Q35.1720-29.1240 35.1720-28.8720L35.1720-28.8720Q35.1720-28.5480 36.0000-27.9720Q36.8280-27.3960 37.7640-27.2880Z"/></svg>