<svg version="1.1" id="Layer_1" xmlns="http://www.w3.org/2000/svg" xmlns:xlink="http://www.w3.org/1999/xlink" x="0px" y="0px"
	 width="100%" viewBox="0 0 500 500" enable-background="new 0 0 500 500" xml:space="preserve">
<path fill="transparent" opacity="1.000000" stroke="none" 
	d="
M344.000000,501.000000 
	C229.333359,501.000000 115.166718,501.000000 1.000061,501.000000 
	C1.000041,334.333405 1.000041,167.666794 1.000020,1.000151 
	C167.666565,1.000100 334.333130,1.000100 500.999756,1.000050 
	C500.999847,167.666519 500.999847,334.333038 500.999939,500.999786 
	C448.833344,501.000000 396.666656,501.000000 344.000000,501.000000 
M409.192596,408.083710 
	C418.629059,407.395142 424.942688,401.676575 430.330231,394.679413 
	C431.202545,393.546417 431.422638,391.566162 431.274231,390.042816 
	C427.416595,350.450226 422.803192,310.918335 419.708832,271.267609 
	C415.884705,222.265137 414.754578,173.130554 415.682037,123.963364 
	C415.944946,110.025879 415.722198,96.079231 415.722198,81.716164 
	C414.572388,81.716164 412.617218,81.715828 410.662018,81.716209 
	C390.169556,81.720215 369.670898,82.031502 349.186768,81.620132 
	C335.591003,81.347107 327.282501,88.511894 321.978851,99.714012 
	C314.720703,115.044411 308.159454,130.706284 301.413269,146.275391 
	C300.659424,148.015137 300.307800,150.083145 300.353943,151.984741 
	C300.462921,156.475235 300.899567,160.959076 301.246887,165.442276 
	C306.335510,231.123749 306.642242,296.905121 305.500214,362.722992 
	C305.240936,377.665924 305.462067,392.617249 305.462067,408.100616 
	C339.384796,408.100616 373.822052,408.100616 409.192596,408.083710 
M252.078568,158.405945 
	C247.186401,132.975708 242.294220,107.545471 237.388382,82.044220 
	C236.602448,81.923347 235.956848,81.737686 235.311096,81.737251 
	C213.151413,81.722412 190.990891,81.612686 168.832413,81.777382 
	C159.181152,81.849113 148.046570,91.830666 146.330765,101.258881 
	C142.636765,121.556931 138.788406,141.827576 135.235199,162.150009 
	C134.395172,166.954422 132.876144,172.480423 134.368988,176.725067 
	C153.682831,231.640625 167.023544,288.118164 179.054550,344.943390 
	C183.461105,365.756500 187.315125,386.686584 191.485794,407.891846 
	C204.379440,407.891846 217.446167,408.870819 230.265457,407.513245 
	C237.589401,406.737671 243.930130,401.339691 246.328766,393.441254 
	C258.993622,351.737183 271.567688,310.005463 284.049194,268.246246 
	C284.607483,266.378448 284.533600,263.911774 283.789978,262.125458 
	C269.935608,228.844879 259.043823,194.668823 252.078568,158.405945 
M89.620438,305.069153 
	C76.138634,339.285889 62.656826,373.502625 49.034199,408.076752 
	C72.673347,408.076752 95.829872,407.678467 118.961983,408.256897 
	C129.402283,408.517975 136.682510,403.851837 143.443558,397.046021 
	C145.774673,394.699463 146.169876,392.341095 145.346603,388.956360 
	C141.299911,372.319275 136.291809,355.752350 134.202713,338.841949 
	C131.207397,314.596069 130.241577,290.085999 128.830292,265.664368 
	C128.240738,255.462341 128.732285,245.197830 128.732285,233.713928 
	C118.075989,237.878799 109.733246,241.746887 106.508514,252.041901 
	C101.041512,269.495361 95.436897,286.905670 89.620438,305.069153 
z"/>
<path fill="#3eaaf7" opacity="1.000000" stroke="none" 
	d="
M408.725952,408.092163 
	C373.822052,408.100616 339.384796,408.100616 305.462067,408.100616 
	C305.462067,392.617249 305.240936,377.665924 305.500214,362.722992 
	C306.642242,296.905121 306.335510,231.123749 301.246887,165.442276 
	C300.899567,160.959076 300.462921,156.475235 300.353943,151.984741 
	C300.307800,150.083145 300.659424,148.015137 301.413269,146.275391 
	C308.159454,130.706284 314.720703,115.044411 321.978851,99.714012 
	C327.282501,88.511894 335.591003,81.347107 349.186768,81.620132 
	C369.670898,82.031502 390.169556,81.720215 410.662018,81.716209 
	C412.617218,81.715828 414.572388,81.716164 415.722198,81.716164 
	C415.722198,96.079231 415.944946,110.025879 415.682037,123.963364 
	C414.754578,173.130554 415.884705,222.265137 419.708832,271.267609 
	C422.803192,310.918335 427.416595,350.450226 431.274231,390.042816 
	C431.422638,391.566162 431.202545,393.546417 430.330231,394.679413 
	C424.942688,401.676575 418.629059,407.395142 408.725952,408.092163 
z"/>
<path fill="#3eaaf7" opacity="1.000000" stroke="none" 
	d="
M252.155731,158.819977 
	C259.043823,194.668823 269.935608,228.844879 283.789978,262.125458 
	C284.533600,263.911774 284.607483,266.378448 284.049194,268.246246 
	C271.567688,310.005463 258.993622,351.737183 246.328766,393.441254 
	C243.930130,401.339691 237.589401,406.737671 230.265457,407.513245 
	C217.446167,408.870819 204.379440,407.891846 191.485794,407.891846 
	C187.315125,386.686584 183.461105,365.756500 179.054550,344.943390 
	C167.023544,288.118164 153.682831,231.640625 134.368988,176.725067 
	C132.876144,172.480423 134.395172,166.954422 135.235199,162.150009 
	C138.788406,141.827576 142.636765,121.556931 146.330765,101.258881 
	C148.046570,91.830666 159.181152,81.849113 168.832413,81.777382 
	C190.990891,81.612686 213.151413,81.722412 235.311096,81.737251 
	C235.956848,81.737686 236.602448,81.923347 237.388382,82.044220 
	C242.294220,107.545471 247.186401,132.975708 252.155731,158.819977 
z"/>
<path fill="#3eaaf7" opacity="1.000000" stroke="none" 
	d="
M89.755280,304.701660 
	C95.436897,286.905670 101.041512,269.495361 106.508514,252.041901 
	C109.733246,241.746887 118.075989,237.878799 128.732285,233.713928 
	C128.732285,245.197830 128.240738,255.462341 128.830292,265.664368 
	C130.241577,290.085999 131.207397,314.596069 134.202713,338.841949 
	C136.291809,355.752350 141.299911,372.319275 145.346603,388.956360 
	C146.169876,392.341095 145.774673,394.699463 143.443558,397.046021 
	C136.682510,403.851837 129.402283,408.517975 118.961983,408.256897 
	C95.829872,407.678467 72.673347,408.076752 49.034199,408.076752 
	C62.656826,373.502625 76.138634,339.285889 89.755280,304.701660 
z"/>
</svg>